<svg version="1.1" id="Layer_1" xmlns="http://www.w3.org/2000/svg" xmlns:xlink="http://www.w3.org/1999/xlink" x="0px" y="0px"
	 width="100%" viewBox="0 0 500 500" enable-background="new 0 0 500 500" xml:space="preserve">
<path fill="#000000" opacity="1.000000" stroke="none" 
	d="
M342.000000,501.000000 
	C228.000031,501.000000 114.500053,501.000000 1.000061,501.000000 
	C1.000041,334.333405 1.000041,167.666794 1.000020,1.000150 
	C167.666565,1.000100 334.333130,1.000100 500.999756,1.000050 
	C500.999847,167.666519 500.999847,334.333038 500.999939,500.999786 
	C448.166656,501.000000 395.333344,501.000000 342.000000,501.000000 
M166.935455,170.943146 
	C166.935455,170.943146 166.916840,171.033203 166.484039,171.112747 
	C166.189133,171.279617 166.076096,171.528885 165.924515,171.908890 
	C165.924515,171.908890 165.913620,172.134293 165.293442,172.388489 
	C161.373230,177.553650 161.942947,182.926758 165.152985,187.996155 
	C167.022903,190.949173 169.737839,193.367096 172.000656,196.040787 
	C172.000656,196.040787 172.043701,196.100327 171.502533,196.707230 
	C169.372757,210.478973 173.399658,216.772644 185.845749,218.291672 
	C188.633026,218.631866 191.612427,217.398117 194.744293,217.942474 
	C194.824173,227.416534 194.973053,236.890793 194.944138,246.364517 
	C194.934814,249.421249 196.054825,250.419815 199.155090,251.143951 
	C207.180756,253.018448 215.281723,255.026947 222.883545,258.130829 
	C230.425598,261.210266 237.180115,266.213348 244.714233,269.319733 
	C248.055313,270.697296 254.294327,271.088928 256.019470,269.122314 
	C259.968323,264.620819 264.933319,262.791840 269.885132,261.041229 
	C279.853760,257.516998 290.105347,254.792587 300.243469,251.748962 
	C303.365082,250.811798 306.144409,249.933197 305.953278,245.569458 
	C305.489288,234.973755 305.394501,224.361893 305.812866,214.044174 
	C312.025757,217.677933 318.504150,218.516556 324.650482,214.420715 
	C330.652985,210.420731 332.256927,204.329971 331.288086,197.301636 
	C331.125336,196.120911 332.238556,194.294800 333.306854,193.488541 
	C341.415405,187.368591 342.351593,172.278351 334.346344,166.067673 
	C331.281036,163.689514 329.125854,161.598404 328.999878,157.698257 
	C328.981995,157.144684 328.385193,156.609802 328.061249,155.963684 
	C328.061249,155.963684 327.966797,155.923340 327.955017,155.398331 
	C327.619690,155.037781 327.284393,154.677216 326.889862,154.092102 
	C326.889862,154.092102 326.657745,154.085297 326.221771,153.353088 
	C326.061829,152.259888 325.724060,151.159348 325.768799,150.074600 
	C326.360352,135.734604 317.459351,126.306366 302.573364,125.814537 
	C302.573364,125.814537 302.101013,125.839050 301.933014,125.028831 
	C301.699799,116.221268 297.802765,109.851303 289.527954,106.401489 
	C282.241943,103.363892 275.389893,103.864548 268.932465,108.931786 
	C268.932465,108.931786 268.886414,109.098007 268.395508,109.088760 
	C268.063507,109.390854 267.731537,109.692947 267.062988,110.107491 
	C267.062988,110.107491 266.896576,110.420921 266.588135,110.396484 
	C266.371918,110.517731 266.301758,110.696617 266.024109,111.210716 
	C266.024109,111.210716 265.886322,111.638573 265.295135,111.825401 
	C264.562134,111.641006 263.829132,111.456619 263.055756,110.985069 
	C263.055756,110.985069 262.782562,110.887878 262.776520,110.239082 
	C257.682831,103.650787 250.500977,101.104683 243.730392,104.146835 
	C240.542786,105.579086 237.881622,108.182991 234.694763,109.953979 
	C234.694763,109.953979 234.281250,109.902748 233.990097,109.495621 
	C233.718292,109.258804 233.405762,109.176292 232.673264,108.942307 
	C232.673264,108.942307 232.189163,108.887474 231.629959,108.359688 
	C219.417892,105.912025 213.440903,108.708382 207.358063,119.195473 
	C206.914871,119.118111 206.471695,119.040756 205.430435,118.445557 
	C190.003784,117.062363 179.566437,127.587860 181.505280,142.342789 
	C181.648422,143.431992 180.020081,144.753983 178.987198,145.924622 
	C178.987198,145.924622 178.896820,146.138458 178.201355,146.094406 
	C169.329239,149.859665 165.643784,157.313492 167.978165,166.571518 
	C168.243378,167.623260 167.990234,168.805725 167.970154,169.962738 
	C167.970154,169.962738 167.937149,169.976913 167.462341,170.095245 
	C167.142273,170.276779 166.996140,170.550995 166.935455,170.943146 
M304.277435,316.657745 
	C304.277435,316.657745 304.083984,316.710785 304.290894,315.828552 
	C303.730743,314.636108 303.193359,312.417236 302.607056,312.404266 
	C292.910889,312.189148 283.208618,312.251190 273.500092,312.251190 
	C271.868713,322.251953 270.352142,331.548920 268.833832,340.856476 
	C263.596161,340.856476 258.821655,340.856476 253.450974,340.856476 
	C255.972626,324.584167 258.445374,308.627289 260.988525,292.216217 
	C256.282898,292.216217 252.299240,292.387146 248.338272,292.160950 
	C245.290939,291.986908 244.396896,293.287079 243.980392,296.119598 
	C242.190140,308.294708 240.135590,320.430725 238.227707,332.588867 
	C237.080368,339.900452 236.025772,347.226593 234.909698,354.678284 
	C256.289490,354.678284 277.085846,354.678284 298.039703,354.678284 
	C298.391510,352.727386 298.719513,350.934692 299.037567,349.140228 
	C300.197266,342.596985 301.018463,335.969696 302.620697,329.536835 
	C303.831848,324.674011 308.362457,322.061920 312.515594,323.201324 
	C317.638031,324.606598 316.982666,328.536102 316.322632,332.511200 
	C315.106262,339.836639 314.053589,347.189240 312.913757,354.654541 
	C323.513245,354.654541 333.665466,354.654541 344.094635,354.654541 
	C344.993835,349.473785 345.893555,344.290070 346.990967,337.967285 
	C351.271057,343.325989 354.843964,347.857513 358.494873,352.325287 
	C359.302765,353.313934 360.361664,354.794189 361.347137,354.828278 
	C367.847046,355.053070 374.358490,354.944366 381.764832,354.944366 
	C375.066803,346.821472 369.159302,339.657288 362.928711,332.101288 
	C370.862793,325.644531 378.599426,319.348511 387.347900,312.229034 
	C381.160400,312.229034 376.509338,312.445496 371.889038,312.161346 
	C368.114868,311.929260 365.258240,313.084290 362.509491,315.660095 
	C358.372375,319.536926 353.876007,323.030396 348.553589,327.510803 
	C350.822418,312.873535 352.869934,299.664154 354.946228,286.269043 
	C349.625702,286.269043 344.872894,286.269043 339.857544,286.269043 
	C337.799927,298.950714 335.775482,311.427826 333.751007,323.904938 
	C332.430847,323.352203 332.018860,322.803223 332.060608,322.291229 
	C332.653046,315.024048 326.287720,311.378143 320.192535,310.955322 
	C313.876068,310.517151 308.964630,313.298309 304.277435,316.657745 
M98.460388,294.918793 
	C95.337219,314.783844 92.214043,334.648926 89.013092,355.008728 
	C90.884995,355.008728 92.516197,355.008728 94.147392,355.008728 
	C100.979355,355.008728 107.811348,354.994720 114.643265,355.012817 
	C121.006020,355.029663 127.363907,354.720490 133.732925,354.969543 
	C138.724289,355.164703 143.730652,354.937073 148.728104,355.024811 
	C156.317795,355.158020 163.353638,353.140106 169.307251,348.594086 
	C173.973831,345.030762 177.970932,340.590698 182.256104,336.548950 
	C182.405792,337.650909 182.642822,339.100281 182.793945,340.558502 
	C183.522507,347.588623 187.398331,352.424194 193.863083,354.645203 
	C204.606369,358.336182 215.220139,357.509613 225.181091,351.849182 
	C229.322372,349.495850 232.293427,346.259613 232.959366,340.982178 
	C234.271347,330.585083 236.162491,320.261749 237.762909,309.900024 
	C238.661087,304.084747 239.456924,298.253693 240.292221,292.475830 
	C235.574127,292.475830 231.628113,292.475830 227.891373,292.475830 
	C227.595535,292.868011 227.434128,292.985596 227.411743,293.125397 
	C225.623444,304.294800 223.958710,315.485779 221.999710,326.624969 
	C221.403534,330.014893 220.404327,333.465851 218.870697,336.528839 
	C216.424026,341.415405 210.583344,343.521118 205.085968,341.898224 
	C199.710190,340.311310 199.428131,335.814117 199.743942,331.375977 
	C200.062210,326.903229 200.810699,322.456757 201.470093,318.013519 
	C202.728683,309.532440 204.057938,301.061859 205.388077,292.389954 
	C199.559219,292.389954 194.445297,292.389954 189.153458,292.389954 
	C188.104324,298.569946 187.079346,304.607635 185.992523,311.009674 
	C177.900116,296.828644 171.381348,292.340302 158.212784,292.246887 
	C139.652054,292.115173 121.089470,292.175385 102.528557,292.292053 
	C101.240929,292.300110 99.960526,293.456055 98.460388,294.918793 
M436.447662,342.128815 
	C438.025208,337.484406 438.732239,332.243134 441.402802,328.348114 
	C444.670197,323.582581 450.470581,324.725830 455.845154,325.840973 
	C456.581451,321.210327 457.274323,316.852661 457.980652,312.410522 
	C451.046356,310.531342 445.884674,313.988617 440.021210,317.941864 
	C440.414459,315.414734 440.622894,314.075409 440.874115,312.460938 
	C435.819916,312.460938 431.080627,312.460938 426.160217,312.460938 
	C425.499329,315.401703 424.882599,318.146057 424.523773,319.742584 
	C420.296692,317.063110 416.550873,313.426880 412.114655,312.101501 
	C395.484070,307.132782 379.962646,317.673523 377.558899,334.912231 
	C375.997162,346.112732 382.439209,354.511536 393.618164,356.039825 
	C403.531860,357.395111 412.278351,354.978027 420.130493,347.334473 
	C419.839966,350.457367 419.646179,352.540497 419.452393,354.623474 
	C424.585327,354.623474 429.471283,354.623474 434.485779,354.623474 
	C435.110413,350.502594 435.681335,346.735962 436.447662,342.128815 
M276.539520,301.751404 
	C279.817902,305.284637 283.598206,305.259796 287.365692,302.880341 
	C291.060120,300.547028 293.334381,296.836456 291.628235,292.707153 
	C290.710541,290.485992 287.588226,288.353119 285.097900,287.792938 
	C281.144440,286.903656 276.383179,290.685394 275.492737,294.881775 
	C275.079620,296.828705 275.861694,299.029205 276.539520,301.751404 
z"/>
<path fill="#D27C46" opacity="1.000000" stroke="none" 
	d="
M206.028503,118.963402 
	C206.471695,119.040756 206.914871,119.118111 207.675064,119.667114 
	C207.992065,121.434860 207.992065,122.730965 207.992065,124.027069 
	C210.113190,118.228333 213.118027,113.229721 219.034988,111.251793 
	C223.215973,109.854179 227.790390,109.633553 232.189163,108.887482 
	C232.189163,108.887474 232.673264,108.942307 233.018829,109.281250 
	C233.635788,109.825302 233.941406,109.919487 234.281250,109.902748 
	C234.281250,109.902748 234.694763,109.953979 234.793701,110.426498 
	C234.643921,111.975044 234.395203,113.051064 234.146484,114.127090 
	C238.877960,107.432060 245.092957,104.758400 252.611603,106.184853 
	C256.171204,106.860199 259.402527,109.266060 262.782562,110.887878 
	C262.782562,110.887878 263.055756,110.985069 263.038757,111.457733 
	C263.740173,113.381546 264.458557,114.832710 265.176941,116.283875 
	C265.413391,116.172844 265.649872,116.061821 265.886322,115.950790 
	C265.886322,114.513382 265.886322,113.075981 265.886322,111.638573 
	C265.886322,111.638573 266.024109,111.210716 266.313873,111.014862 
	C266.752258,110.723808 266.849884,110.591110 266.896576,110.420921 
	C266.896576,110.420921 267.062988,110.107491 267.466370,110.037109 
	C268.208649,109.677155 268.547516,109.387581 268.886414,109.098007 
	C268.886414,109.098007 268.932465,108.931786 269.408813,108.952728 
	C271.311432,108.589798 272.785797,108.330391 274.156097,107.801414 
	C281.779755,104.858368 295.961548,109.106277 299.052917,119.284782 
	C299.916565,122.128448 300.020782,125.202766 300.627411,129.181442 
	C301.384277,127.464760 301.742645,126.651909 302.101013,125.839050 
	C302.101013,125.839050 302.573364,125.814537 303.030762,126.186195 
	C319.649292,130.786819 326.290527,140.992157 322.100708,158.326279 
	C324.185242,156.386307 325.421478,155.235794 326.657745,154.085297 
	C326.657745,154.085297 326.889862,154.092102 326.954956,154.457367 
	C327.335602,155.189529 327.651215,155.556442 327.966797,155.923340 
	C327.966797,155.923340 328.061249,155.963684 328.033936,156.429947 
	C327.236359,161.531250 327.446198,164.755432 332.656097,167.872559 
	C339.751312,172.117737 338.148773,187.853943 331.076111,192.516052 
	C329.023712,193.868927 326.829376,195.006546 323.597137,196.883301 
	C326.464661,196.635651 327.983429,196.504486 329.461945,196.376801 
	C331.849731,208.570419 321.083191,216.409805 311.274933,214.634171 
	C307.537903,213.957626 306.038300,212.147186 307.357208,208.519867 
	C308.163574,206.302048 308.027161,204.931107 305.174286,204.529907 
	C305.144409,199.567947 305.188110,195.068314 305.542938,190.767044 
	C308.268341,191.633667 310.682648,192.301910 313.096985,192.970169 
	C313.325256,192.391037 313.553528,191.811920 313.781769,191.232803 
	C307.541443,190.599701 304.232178,187.423737 304.171417,181.173996 
	C304.047852,183.113800 303.924316,185.053619 303.472198,186.994156 
	C302.490356,186.990479 301.837097,186.986084 301.136200,186.562500 
	C301.081024,182.736954 301.073486,179.330612 300.971863,175.696487 
	C300.676147,175.183746 300.403534,175.010025 299.964539,174.721191 
	C299.671387,174.218918 299.411224,174.028183 298.982971,173.698486 
	C298.671539,173.196014 298.399536,173.020096 297.971863,172.715607 
	C297.697021,172.191467 297.436890,171.999725 297.085815,171.647461 
	C296.821777,171.166763 296.573975,170.948059 296.326172,170.729340 
	C296.524750,171.182770 296.723358,171.636200 297.025818,172.313538 
	C297.321747,172.833755 297.592041,173.010559 298.026001,173.301239 
	C298.373413,173.728378 298.635376,173.922119 299.004333,174.338318 
	C299.310944,174.852783 299.585938,175.023209 300.017609,175.306641 
	C300.295929,175.833832 300.567932,176.012070 300.906982,176.467560 
	C300.313995,180.607300 299.729034,184.355362 299.025146,188.314301 
	C298.699310,188.830124 298.415558,188.944443 298.000977,188.488281 
	C297.291168,184.688049 295.552551,183.106140 291.840332,184.012527 
	C290.334717,184.380142 288.635834,183.956116 287.170227,183.618851 
	C287.786865,182.469788 288.258179,181.594162 288.729523,180.718536 
	C288.072235,180.120621 287.414978,179.522705 286.757690,178.924789 
	C285.845154,180.567795 284.932648,182.210785 283.577209,183.908051 
	C277.441406,184.998108 271.748444,186.033920 265.859619,186.864960 
	C264.813568,187.273926 263.963379,187.887695 262.865692,188.705383 
	C258.345276,192.148544 254.072342,195.387772 249.701019,198.701569 
	C245.782852,195.301102 241.869965,191.905228 238.130432,188.285126 
	C238.428696,187.782318 238.553574,187.503723 238.678452,187.225128 
	C238.494720,187.178452 238.310989,187.131760 238.127258,187.085083 
	C238.057648,187.542877 237.988022,188.000656 237.520630,188.549820 
	C228.860611,183.998886 219.550400,184.798187 210.651840,183.351715 
	C206.179367,182.624695 203.643143,183.526794 202.257812,187.943619 
	C195.214340,185.392532 195.093643,185.495010 195.019196,192.670059 
	C194.948914,199.443359 194.811737,206.215958 194.362701,213.048431 
	C186.158218,219.699600 173.186523,213.582855 172.140121,203.586227 
	C171.881409,201.114655 172.063980,198.596863 172.043701,196.100327 
	C172.043701,196.100327 172.000656,196.040787 172.348846,196.025528 
	C172.835907,195.242310 173.366852,194.166122 173.046768,193.759003 
	C171.547989,191.852631 169.588440,190.288391 168.209961,188.311508 
	C164.756851,183.359543 164.807724,177.794968 165.913620,172.134293 
	C165.913620,172.134293 165.924515,171.908890 166.224640,171.818497 
	C166.753525,171.551895 166.884216,171.320267 166.916840,171.033203 
	C166.916840,171.033203 166.935455,170.943146 167.195251,170.845276 
	C167.722412,170.557358 167.883102,170.300522 167.937149,169.976913 
	C167.937149,169.976913 167.970154,169.962738 168.304993,170.019119 
	C170.089264,171.055481 171.538696,172.035446 173.046021,173.149841 
	C173.190506,173.331024 173.277069,173.377823 173.363617,173.424606 
	C173.247406,173.279190 173.131180,173.133759 172.971863,172.625244 
	C170.481155,167.081161 167.358383,161.841888 171.041122,156.111984 
	C173.318726,152.568344 176.255798,149.448532 178.896820,146.138458 
	C178.896820,146.138458 178.987198,145.924622 179.434464,145.971375 
	C181.578278,147.024582 183.274826,148.031036 185.036560,149.168274 
	C185.191254,149.343109 185.280762,149.387146 185.370270,149.431183 
	C185.259171,149.277924 185.148071,149.124680 185.020386,148.575409 
	C181.371216,134.272659 185.080246,125.887985 197.360672,120.925941 
	C200.071671,119.830536 203.130066,119.594925 206.028503,118.963402 
M180.561905,165.054886 
	C180.585068,165.251938 180.608231,165.448990 180.631378,165.646042 
	C180.781723,165.453613 180.932053,165.261185 181.378967,164.897568 
	C181.224152,164.898605 181.069336,164.899643 180.561905,165.054886 
M186.881592,203.473404 
	C186.687042,203.182053 186.417923,203.002319 186.000534,202.308228 
	C185.390457,201.490372 184.780380,200.672516 184.103790,198.970032 
	C184.425110,194.999725 184.746445,191.029404 185.532639,186.885605 
	C185.818787,186.681168 185.991760,186.405640 186.517303,185.877258 
	C186.808426,185.684265 187.002243,185.419922 187.410156,184.908478 
	C187.239304,184.899765 187.068451,184.891068 186.440063,185.094849 
	C186.271439,185.377365 186.102798,185.659897 185.466858,186.111145 
	C185.178253,186.313461 185.003738,186.588272 184.297882,187.293991 
	C181.862885,191.502182 180.423401,195.750534 183.885056,200.849777 
	C184.565048,201.594666 185.245041,202.339554 186.099152,203.550156 
	C186.297760,203.846298 186.573837,204.017868 187.054062,204.420197 
	C187.184814,204.462753 187.315552,204.505310 187.446304,204.547867 
	C187.316132,204.343903 187.185944,204.139938 186.881592,203.473404 
M321.326538,159.922333 
	C321.195282,159.931717 321.064026,159.941101 320.675842,160.097916 
	C320.801514,160.088898 320.927216,160.079880 321.326538,159.922333 
M298.293945,158.904877 
	C298.186493,158.929428 298.079071,158.953979 297.548706,159.205444 
	C297.285004,159.402374 297.091644,159.653488 296.503052,160.303238 
	C296.343292,160.841965 296.183533,161.380707 295.495209,162.351974 
	C295.293671,163.230972 295.092133,164.109955 294.307220,164.912445 
	C293.517334,164.679321 292.733459,164.350784 291.932068,164.300339 
	C291.786469,164.291153 291.569244,165.419586 291.385101,166.022842 
	C292.538177,166.353256 293.691223,166.683670 295.006836,167.614182 
	C295.229248,167.758484 295.443420,167.920532 295.681610,168.030746 
	C295.724518,168.050598 295.947510,167.859314 295.950226,167.761734 
	C296.003845,165.823059 296.037292,163.883850 296.540680,161.630432 
	C296.708069,161.097672 296.875427,160.564896 297.459473,159.794586 
	C297.719604,159.592590 297.907013,159.337234 298.293945,158.904877 
M313.696045,164.089554 
	C314.159485,163.761993 314.622894,163.434448 315.709412,162.700668 
	C318.741241,158.224243 318.676941,153.586884 317.135254,148.582092 
	C316.321686,153.574219 315.570526,158.183350 314.258514,162.910431 
	C313.812805,163.251602 313.367096,163.592773 312.618469,164.106216 
	C312.781952,164.112183 312.945435,164.118149 313.696045,164.089554 
M243.992310,156.052765 
	C243.992310,156.052765 243.915924,156.098480 243.905579,155.435181 
	C243.443344,155.157272 242.981125,154.879349 242.526230,154.503464 
	C242.526230,154.503464 242.434723,154.467636 242.570923,153.813568 
	C242.007065,153.557144 241.443192,153.300720 240.294571,152.760284 
	C239.197464,152.130249 238.100357,151.500214 236.959839,150.376434 
	C235.969025,150.512085 234.978226,150.647736 233.253189,150.917328 
	C225.876755,152.555298 223.303268,158.302261 222.284821,164.725113 
	C221.165558,171.783691 222.836288,178.317093 228.818314,182.957947 
	C229.837280,183.748459 231.588196,183.595520 233.636337,184.057556 
	C235.753708,183.694519 237.871094,183.331482 240.006561,183.667587 
	C241.871964,186.234940 241.871964,186.234940 244.778931,181.596115 
	C243.772064,181.374481 242.888474,181.179993 242.200607,180.410828 
	C242.773804,180.263580 243.347015,180.116318 244.581955,179.983109 
	C245.246475,179.681244 245.910995,179.379379 246.575516,179.077515 
	C246.130829,178.718338 245.686127,178.359146 245.083893,177.449661 
	C245.109573,177.260605 245.135239,177.071533 245.622131,176.736099 
	C246.012161,176.464737 246.402176,176.193359 247.459671,175.895416 
	C247.477814,175.189178 247.495956,174.482941 247.689789,173.029266 
	C247.850540,172.019104 248.011292,171.008957 248.836945,169.999771 
	C249.499329,170.002930 250.161713,170.006088 250.943680,170.769318 
	C253.298798,174.842911 255.653915,178.916504 258.587280,183.220795 
	C259.407318,183.770737 260.227325,184.320663 261.913574,184.940735 
	C271.721863,185.373566 277.622345,179.882126 278.141968,169.837296 
	C278.728851,158.492661 273.518616,151.617142 263.987549,150.585480 
	C263.987549,150.585480 264.174316,150.177612 264.990723,150.101654 
	C269.811157,149.743164 274.631592,149.384674 279.374512,149.031937 
	C274.233826,146.199158 268.945221,146.445175 262.966095,149.748474 
	C261.817505,150.575165 260.668915,151.401840 259.456940,152.092117 
	C259.456940,152.092117 259.592102,152.026123 258.995911,152.280640 
	C258.736603,152.830612 258.477264,153.380569 257.765930,154.446365 
	C256.214600,156.658737 254.663269,158.871109 252.458481,161.406250 
	C251.909973,163.600906 251.361450,165.795578 250.154663,167.997574 
	C249.493774,167.998764 248.832886,167.999954 248.054840,167.251938 
	C248.079376,166.495224 248.103912,165.738495 248.561035,164.565903 
	C248.215607,163.967651 247.870178,163.369400 247.615005,162.544464 
	C247.615005,162.544464 247.850601,162.481018 247.893814,161.726883 
	C246.973679,160.483231 246.053543,159.239563 245.014328,157.578018 
	C245.014328,157.578018 244.956833,157.147308 244.761459,156.650055 
	C244.475433,156.449661 244.189407,156.249268 243.992310,156.052765 
M246.102036,188.293564 
	C246.190186,188.338181 246.278320,188.382812 246.366455,188.427444 
	C246.254028,188.277435 246.141617,188.127426 245.941620,187.416306 
	C245.631607,187.101349 245.321594,186.786392 245.011581,186.471466 
	C244.831100,186.680603 244.650620,186.889740 244.470123,187.098877 
	C244.972107,187.409683 245.474106,187.720490 246.102036,188.293564 
M181.075241,178.352020 
	C181.454208,179.045898 181.833160,179.739761 182.212112,180.433624 
	C182.411026,180.356461 182.609924,180.279282 182.808823,180.202118 
	C182.727585,179.471451 182.646347,178.740799 183.364120,178.016403 
	C184.334595,178.574646 185.305069,179.132889 186.353455,179.735947 
	C185.265823,175.378601 184.298691,171.504074 183.331573,167.629562 
	C183.110580,167.577774 182.889587,167.526001 182.668579,167.474228 
	C182.376038,170.273697 182.083496,173.073166 181.022125,175.213120 
	C180.507584,172.735321 179.993057,170.257538 179.489944,167.834747 
	C176.819641,171.941483 177.678238,176.194687 181.445999,177.762970 
	C181.445999,177.762970 181.339981,177.643753 181.075241,178.352020 
M177.973755,208.165085 
	C177.481827,207.737091 176.989883,207.309113 176.497955,206.881134 
	C176.316025,207.047272 176.134094,207.213409 175.952164,207.379562 
	C176.409515,208.098572 176.866852,208.817581 177.690063,210.137039 
	C180.817749,213.561325 184.496689,214.271454 189.079422,212.462097 
	C185.229462,211.146317 181.740433,209.953903 177.973755,208.165085 
M190.803925,129.687927 
	C186.635376,133.777237 185.967010,138.592545 187.472534,143.908386 
	C189.069031,139.257858 190.629654,134.711777 192.676056,129.842804 
	C192.703705,129.395844 192.731354,128.948898 192.759018,128.501938 
	C192.301468,128.769135 191.843933,129.036331 190.803925,129.687927 
M218.496201,149.403809 
	C218.584076,150.105759 218.671951,150.807709 218.759811,151.509659 
	C219.154968,150.628662 219.550110,149.747665 220.311737,148.290176 
	C224.981293,144.282883 230.281631,142.413177 236.560913,143.415710 
	C234.178055,142.586105 231.814056,141.995117 229.435684,141.930069 
	C222.822479,141.749252 219.985718,143.768127 218.496201,149.403809 
M269.706482,142.017563 
	C273.738953,143.415802 277.771423,144.814026 281.804688,146.209686 
	C279.580017,140.449600 274.242462,138.860168 266.751556,141.893036 
	C267.636780,141.942642 268.291870,141.979355 269.706482,142.017563 
M174.805420,160.487976 
	C175.437668,158.121567 176.069916,155.755142 176.873764,152.746445 
	C171.649109,158.342102 170.911896,162.119583 173.828491,167.312180 
	C174.150208,165.140198 174.435669,163.212967 174.805420,160.487976 
M173.810547,190.704086 
	C174.778000,191.104156 175.745453,191.504242 177.797119,192.352676 
	C174.356110,187.911041 171.680359,184.457184 169.004593,181.003326 
	C168.612793,181.279648 168.220993,181.555954 167.829193,181.832260 
	C169.637390,184.636185 171.445587,187.440125 173.810547,190.704086 
M287.848572,155.370621 
	C288.392456,156.842758 288.936340,158.314896 289.480194,159.787018 
	C289.978577,159.517456 290.476929,159.247879 290.975281,158.978302 
	C290.141724,157.774231 289.308197,156.570160 287.848572,155.370621 
M209.608551,178.527740 
	C209.727615,177.276672 209.846680,176.025604 209.965744,174.774536 
	C209.420303,174.845474 208.874847,174.916412 208.329391,174.987366 
	C208.602692,176.032043 208.875977,177.076721 209.608551,178.527740 
M211.720200,156.732727 
	C210.995605,157.499161 210.271027,158.265594 209.546432,159.032028 
	C209.881256,159.268631 210.216064,159.505249 210.550888,159.741852 
	C211.122589,158.702606 211.694290,157.663376 211.720200,156.732727 
M291.178619,172.118271 
	C291.629150,172.470169 292.079651,172.822052 292.530151,173.173935 
	C292.594818,172.422989 292.659485,171.672043 292.724152,170.921082 
	C292.188629,171.115234 291.653107,171.309387 291.178619,172.118271 
M196.909286,179.273773 
	C196.963593,179.769455 197.017914,180.265152 197.072220,180.760834 
	C197.514816,180.646393 197.957428,180.531952 198.400024,180.417511 
	C198.100693,179.994171 197.801361,179.570847 196.909286,179.273773 
M208.813553,161.393326 
	C208.798767,161.939545 208.755661,162.488449 208.806488,163.028488 
	C208.812576,163.093185 209.329041,163.109848 209.608963,163.148758 
	C209.526871,162.578751 209.444794,162.008759 208.813553,161.393326 
M215.435654,152.705246 
	C215.706055,152.988632 215.976456,153.272018 216.246857,153.555405 
	C216.364166,153.443222 216.589661,153.239716 216.583191,153.232040 
	C216.330933,152.933167 216.057495,152.652161 215.435654,152.705246 
M211.798889,180.402069 
	C211.794052,180.791214 211.789215,181.180374 211.784393,181.569534 
	C211.945862,181.570587 212.247559,181.582809 212.248474,181.571075 
	C212.279327,181.184158 212.281326,180.794968 211.798889,180.402069 
M289.393860,178.201035 
	C289.785309,178.205231 290.176788,178.209412 290.568237,178.213608 
	C290.569794,178.051163 290.582275,177.747528 290.571350,177.746674 
	C290.181763,177.716583 289.790009,177.714813 289.393860,178.201035 
M194.377701,181.465149 
	C194.114929,181.181519 193.852142,180.897888 193.589355,180.614258 
	C193.488358,180.715454 193.291336,180.895279 193.300385,180.906326 
	C193.534912,181.192703 193.790894,181.461502 194.377701,181.465149 
M313.181000,171.034958 
	C313.275238,171.434586 313.369476,171.834213 313.463715,172.233810 
	C313.583435,172.146927 313.814209,172.044556 313.804596,171.975693 
	C313.748047,171.569946 313.635529,171.171982 313.181000,171.034958 
M256.163666,187.943726 
	C256.414673,187.795044 256.789001,187.696426 256.876312,187.481293 
	C256.941986,187.319519 256.639374,187.008270 256.500702,186.763565 
	C256.361511,187.008545 256.222321,187.253510 256.163666,187.943726 
M175.969452,205.395554 
	C175.750763,205.017319 175.578720,204.593842 175.283752,204.289551 
	C175.200012,204.203186 174.758041,204.464111 174.480362,204.565765 
	C174.871887,205.021667 175.263428,205.477554 175.969452,205.395554 
M316.383850,194.595154 
	C316.031494,194.685089 315.679169,194.775024 315.326813,194.864944 
	C315.645111,194.912201 315.963379,194.959457 316.383850,194.595154 
M311.649414,174.336792 
	C311.532288,174.580948 311.415192,174.825119 311.298096,175.069290 
	C311.532623,175.140915 311.767181,175.212524 312.001709,175.284134 
	C312.026672,174.947632 312.051636,174.611145 311.649414,174.336792 
M207.628586,172.651703 
	C207.879761,172.577255 208.130920,172.502808 208.382095,172.428360 
	C208.110092,172.150009 207.838104,171.871643 207.566101,171.593292 
	C207.485474,171.842636 207.404846,172.091965 207.628586,172.651703 
M187.279022,160.055130 
	C187.617371,160.031799 187.955719,160.008453 188.294067,159.985107 
	C188.222794,159.747299 188.151535,159.509476 188.080261,159.271667 
	C187.833740,159.389084 187.587219,159.506500 187.279022,160.055130 
M207.533600,166.380630 
	C207.818619,166.116455 208.103638,165.852295 208.388641,165.588120 
	C208.286850,165.486725 208.106018,165.288849 208.094803,165.298035 
	C207.807129,165.533630 207.537186,165.790863 207.533600,166.380630 
M291.368195,161.523315 
	C291.158234,161.469055 290.948303,161.414795 290.738342,161.360550 
	C290.873383,161.494064 291.008453,161.627594 291.368195,161.523315 
M281.210571,150.473389 
	C281.409546,150.491684 281.608490,150.509979 281.807465,150.528275 
	C281.715790,150.434616 281.624115,150.340942 281.210571,150.473389 
M283.463409,151.264908 
	C283.358551,151.337357 283.253662,151.409805 283.148804,151.482254 
	C283.233063,151.577728 283.309479,151.738922 283.403809,151.750244 
	C283.498688,151.761597 283.611450,151.623825 283.463409,151.264908 
M300.482513,157.584198 
	C300.482513,157.584198 300.419250,157.477249 300.482513,157.584198 
M315.340088,146.488693 
	C315.340088,146.488693 315.564087,146.614212 315.564087,146.614212 
	C315.564087,146.614212 315.527588,146.343994 315.340088,146.488693 
M184.507019,161.353943 
	C184.507019,161.353943 184.394836,161.547379 184.394836,161.547379 
	C184.394836,161.547379 184.627182,161.519638 184.507019,161.353943 
M182.647400,162.546631 
	C182.647400,162.546631 182.474609,162.453629 182.474609,162.453629 
	C182.474609,162.453629 182.503693,162.648636 182.647400,162.546631 
z"/>
<path fill="#242121" opacity="1.000000" stroke="none" 
	d="
M305.231842,190.568680 
	C305.188110,195.068314 305.144409,199.567947 305.100037,204.967438 
	C305.116547,208.497055 305.133759,211.126785 305.150970,213.756531 
	C305.394501,224.361893 305.489288,234.973755 305.953278,245.569458 
	C306.144409,249.933197 303.365082,250.811798 300.243469,251.748962 
	C290.105347,254.792587 279.853760,257.516998 269.885132,261.041229 
	C264.933319,262.791840 259.968323,264.620819 256.019470,269.122314 
	C254.294327,271.088928 248.055313,270.697296 244.714233,269.319733 
	C237.180115,266.213348 230.425598,261.210266 222.883545,258.130829 
	C215.281723,255.026947 207.180756,253.018448 199.155090,251.143951 
	C196.054825,250.419815 194.934814,249.421249 194.944138,246.364517 
	C194.973053,236.890793 194.824173,227.416534 194.688141,217.101166 
	C194.655991,215.169525 194.679993,214.079208 194.703979,212.988876 
	C194.811737,206.215958 194.948914,199.443359 195.019196,192.670059 
	C195.093643,185.495010 195.214340,185.392532 202.615952,188.108368 
	C215.804596,192.745850 228.308823,197.151474 240.748138,201.733368 
	C242.408646,202.345001 243.628021,204.522217 245.248886,204.792725 
	C248.134766,205.274368 251.234192,205.199341 254.121155,204.676712 
	C255.816620,204.369827 257.143402,202.361649 258.859955,201.782547 
	C271.893829,197.385391 284.983032,193.152328 298.054993,188.868134 
	C298.415558,188.944443 298.699310,188.830124 299.356445,188.288193 
	C300.242096,187.968582 300.677582,187.885941 301.469666,187.849289 
	C302.546082,187.899033 303.265808,187.902802 304.206207,188.117828 
	C304.695190,189.075607 304.963531,189.822144 305.231842,190.568680 
z"/>
<path fill="#FAFAFA" opacity="1.000000" stroke="none" 
	d="
M98.568573,294.498505 
	C99.960526,293.456055 101.240929,292.300110 102.528557,292.292053 
	C121.089470,292.175385 139.652054,292.115173 158.212784,292.246887 
	C171.381348,292.340302 177.900116,296.828644 185.992523,311.009674 
	C187.079346,304.607635 188.104324,298.569946 189.153458,292.389954 
	C194.445297,292.389954 199.559219,292.389954 205.388077,292.389954 
	C204.057938,301.061859 202.728683,309.532440 201.470093,318.013519 
	C200.810699,322.456757 200.062210,326.903229 199.743942,331.375977 
	C199.428131,335.814117 199.710190,340.311310 205.085968,341.898224 
	C210.583344,343.521118 216.424026,341.415405 218.870697,336.528839 
	C220.404327,333.465851 221.403534,330.014893 221.999710,326.624969 
	C223.958710,315.485779 225.623444,304.294800 227.411743,293.125397 
	C227.434128,292.985596 227.595535,292.868011 227.891373,292.475830 
	C231.628113,292.475830 235.574127,292.475830 240.292221,292.475830 
	C239.456924,298.253693 238.661087,304.084747 237.762909,309.900024 
	C236.162491,320.261749 234.271347,330.585083 232.959366,340.982178 
	C232.293427,346.259613 229.322372,349.495850 225.181091,351.849182 
	C215.220139,357.509613 204.606369,358.336182 193.863083,354.645203 
	C187.398331,352.424194 183.522507,347.588623 182.793945,340.558502 
	C182.642822,339.100281 182.405792,337.650909 182.256104,336.548950 
	C177.970932,340.590698 173.973831,345.030762 169.307251,348.594086 
	C163.353638,353.140106 156.317795,355.158020 148.728104,355.024811 
	C143.730652,354.937073 138.724289,355.164703 133.732925,354.969543 
	C127.363907,354.720490 121.006020,355.029663 114.643265,355.012817 
	C107.811348,354.994720 100.979355,355.008728 94.147392,355.008728 
	C92.516197,355.008728 90.884995,355.008728 89.013092,355.008728 
	C92.214043,334.648926 95.337219,314.783844 98.568573,294.498505 
M131.908829,305.964722 
	C125.653259,305.964722 119.397697,305.964722 113.056335,305.964722 
	C112.563560,309.881592 112.162056,313.072968 111.680618,316.899719 
	C118.101418,316.899719 123.809708,316.899719 129.756516,316.899719 
	C128.969620,321.708923 128.280136,325.922791 127.531563,330.497742 
	C121.261604,330.497742 115.320244,330.497742 109.268188,330.497742 
	C108.710678,334.140533 108.214920,337.379761 107.708580,340.688202 
	C114.530685,342.196167 121.416504,339.580963 128.044571,342.448395 
	C129.894333,330.478210 131.770782,318.335327 133.952835,305.505463 
	C134.156799,303.363892 134.360764,301.222321 134.564713,299.080750 
	C134.250381,299.038635 133.936066,298.996490 133.621735,298.954376 
	C133.347519,301.219147 133.073318,303.483887 131.908829,305.964722 
M151.955093,340.896179 
	C153.401001,340.529358 154.886078,340.273254 156.286469,339.777832 
	C165.498337,336.518646 171.088837,326.065094 168.812469,316.448120 
	C167.037643,308.950012 160.107819,305.257843 150.064941,306.617218 
	C148.274765,317.922607 146.474136,329.294037 144.623322,340.982391 
	C147.156281,340.982391 149.116379,340.982391 151.955093,340.896179 
z"/>
<path fill="#D07943" opacity="1.000000" stroke="none" 
	d="
M304.236938,316.854218 
	C308.964630,313.298309 313.876068,310.517151 320.192535,310.955322 
	C326.287720,311.378143 332.653046,315.024048 332.060608,322.291229 
	C332.018860,322.803223 332.430847,323.352203 333.751007,323.904938 
	C335.775482,311.427826 337.799927,298.950714 339.857544,286.269043 
	C344.872894,286.269043 349.625702,286.269043 354.946228,286.269043 
	C352.869934,299.664154 350.822418,312.873535 348.553589,327.510803 
	C353.876007,323.030396 358.372375,319.536926 362.509491,315.660095 
	C365.258240,313.084290 368.114868,311.929260 371.889038,312.161346 
	C376.509338,312.445496 381.160400,312.229034 387.347900,312.229034 
	C378.599426,319.348511 370.862793,325.644531 362.928711,332.101288 
	C369.159302,339.657288 375.066803,346.821472 381.764832,354.944366 
	C374.358490,354.944366 367.847046,355.053070 361.347137,354.828278 
	C360.361664,354.794189 359.302765,353.313934 358.494873,352.325287 
	C354.843964,347.857513 351.271057,343.325989 346.990967,337.967285 
	C345.893555,344.290070 344.993835,349.473785 344.094635,354.654541 
	C333.665466,354.654541 323.513245,354.654541 312.913757,354.654541 
	C314.053589,347.189240 315.106262,339.836639 316.322632,332.511200 
	C316.982666,328.536102 317.638031,324.606598 312.515594,323.201324 
	C308.362457,322.061920 303.831848,324.674011 302.620697,329.536835 
	C301.018463,335.969696 300.197266,342.596985 299.037567,349.140228 
	C298.719513,350.934692 298.391510,352.727386 298.039703,354.678284 
	C277.085846,354.678284 256.289490,354.678284 234.909698,354.678284 
	C236.025772,347.226593 237.080368,339.900452 238.227707,332.588867 
	C240.135590,320.430725 242.190140,308.294708 243.980392,296.119598 
	C244.396896,293.287079 245.290939,291.986908 248.338272,292.160950 
	C252.299240,292.387146 256.282898,292.216217 260.988525,292.216217 
	C258.445374,308.627289 255.972626,324.584167 253.450974,340.856476 
	C258.821655,340.856476 263.596161,340.856476 268.833832,340.856476 
	C270.352142,331.548920 271.868713,322.251953 273.500092,312.251190 
	C283.208618,312.251190 292.910889,312.189148 302.607056,312.404266 
	C303.193359,312.417236 303.730743,314.636108 304.214966,316.252258 
	C304.139008,316.675995 304.236938,316.854218 304.236938,316.854218 
M332.093872,332.131927 
	C332.292603,331.304321 332.491364,330.476746 332.690094,329.649139 
	C332.290466,329.598480 331.890808,329.547821 331.491180,329.497162 
	C331.491180,330.408264 331.491180,331.319336 332.093872,332.131927 
M330.873077,343.511017 
	C330.340851,343.322266 329.808624,343.133514 329.276398,342.944763 
	C329.343781,343.688324 329.411133,344.431915 329.478516,345.175476 
	C329.923706,344.823456 330.368896,344.471405 330.873077,343.511017 
M328.707703,350.559814 
	C328.989105,350.291473 329.270477,350.023132 329.551880,349.754791 
	C329.440674,349.638275 329.329498,349.521729 329.218292,349.405212 
	C328.936859,349.673920 328.655396,349.942596 328.707703,350.559814 
M331.559082,337.292664 
	C331.290771,337.011414 331.022461,336.730164 330.754150,336.448914 
	C330.637726,336.560120 330.414001,336.761963 330.420410,336.769531 
	C330.670807,337.066162 330.942139,337.345062 331.559082,337.292664 
M285.465485,338.621674 
	C285.181549,338.884796 284.897614,339.147919 284.613678,339.411041 
	C284.714996,339.512207 284.895142,339.709564 284.906128,339.700562 
	C285.192810,339.465668 285.461945,339.209351 285.465485,338.621674 
M286.816803,333.960602 
	C286.723358,333.563171 286.629913,333.165741 286.536499,332.768311 
	C286.417389,332.854553 286.187866,332.956146 286.197357,333.024536 
	C286.253387,333.428040 286.364960,333.823792 286.816803,333.960602 
M288.649658,320.370850 
	C288.575531,320.120728 288.501434,319.870636 288.427307,319.620514 
	C288.150116,319.891357 287.872955,320.162170 287.595764,320.433014 
	C287.844055,320.513397 288.092316,320.593811 288.649658,320.370850 
M284.183319,346.038544 
	C284.276703,346.435791 284.370117,346.833069 284.463501,347.230316 
	C284.582550,347.144073 284.812012,347.042542 284.802521,346.974182 
	C284.746552,346.570831 284.635010,346.175232 284.183319,346.038544 
M283.251282,352.170380 
	C283.413971,352.116760 283.576691,352.063110 283.739380,352.009460 
	C283.575775,351.956940 283.412140,351.904419 283.251282,352.170380 
M289.475342,315.358734 
	C289.528656,315.153534 289.581940,314.948334 289.635223,314.743134 
	C289.504700,314.874969 289.374176,315.006836 289.475342,315.358734 
z"/>
<path fill="#D07843" opacity="1.000000" stroke="none" 
	d="
M436.349976,342.549072 
	C435.681335,346.735962 435.110413,350.502594 434.485779,354.623474 
	C429.471283,354.623474 424.585327,354.623474 419.452393,354.623474 
	C419.646179,352.540497 419.839966,350.457367 420.130493,347.334473 
	C412.278351,354.978027 403.531860,357.395111 393.618164,356.039825 
	C382.439209,354.511536 375.997162,346.112732 377.558899,334.912231 
	C379.962646,317.673523 395.484070,307.132782 412.114655,312.101501 
	C416.550873,313.426880 420.296692,317.063110 424.523773,319.742584 
	C424.882599,318.146057 425.499329,315.401703 426.160217,312.460938 
	C431.080627,312.460938 435.819916,312.460938 440.874115,312.460938 
	C440.622894,314.075409 440.414459,315.414734 440.021210,317.941864 
	C445.884674,313.988617 451.046356,310.531342 457.980652,312.410522 
	C457.274323,316.852661 456.581451,321.210327 455.845154,325.840973 
	C450.470581,324.725830 444.670197,323.582581 441.402802,328.348114 
	C438.732239,332.243134 438.025208,337.484406 436.349976,342.549072 
M414.399689,336.110992 
	C407.135437,336.110992 399.871155,336.110992 392.788116,336.110992 
	C390.526947,344.840790 399.579041,347.892853 404.362610,344.642487 
	C408.550354,341.796936 412.669220,341.727203 417.049469,341.969543 
	C421.207306,342.199585 422.448120,340.444824 421.641724,336.111084 
	C419.602112,336.111084 417.483398,336.111084 414.399689,336.110992 
M395.764587,324.664520 
	C396.064026,325.549927 396.336578,327.194794 396.666931,327.206482 
	C401.395416,327.373810 406.131744,327.320740 410.978271,327.320740 
	C409.492737,320.023193 403.079468,318.859161 395.764587,324.664520 
z"/>
<path fill="#CC7A48" opacity="1.000000" stroke="none" 
	d="
M305.481934,213.900360 
	C305.133759,211.126785 305.116547,208.497055 305.173584,205.429779 
	C308.027161,204.931107 308.163574,206.302048 307.357208,208.519867 
	C306.038300,212.147186 307.537903,213.957626 311.274933,214.634171 
	C321.083191,216.409805 331.849731,208.570419 329.461945,196.376801 
	C327.983429,196.504486 326.464661,196.635651 323.597137,196.883301 
	C326.829376,195.006546 329.023712,193.868927 331.076111,192.516052 
	C338.148773,187.853943 339.751312,172.117737 332.656097,167.872559 
	C327.446198,164.755432 327.236359,161.531250 328.031494,156.481232 
	C328.385193,156.609802 328.981995,157.144684 328.999878,157.698257 
	C329.125854,161.598404 331.281036,163.689514 334.346344,166.067673 
	C342.351593,172.278351 341.415405,187.368591 333.306854,193.488541 
	C332.238556,194.294800 331.125336,196.120911 331.288086,197.301636 
	C332.256927,204.329971 330.652985,210.420731 324.650482,214.420715 
	C318.504150,218.516556 312.025757,217.677933 305.481934,213.900360 
z"/>
<path fill="#D07843" opacity="1.000000" stroke="none" 
	d="
M276.320740,301.433105 
	C275.861694,299.029205 275.079620,296.828705 275.492737,294.881775 
	C276.383179,290.685394 281.144440,286.903656 285.097900,287.792938 
	C287.588226,288.353119 290.710541,290.485992 291.628235,292.707153 
	C293.334381,296.836456 291.060120,300.547028 287.365692,302.880341 
	C283.598206,305.259796 279.817902,305.284637 276.320740,301.433105 
z"/>
<path fill="#CC7A48" opacity="1.000000" stroke="none" 
	d="
M184.971375,149.037491 
	C183.274826,148.031036 181.578278,147.024582 179.548523,145.992935 
	C180.020081,144.753983 181.648422,143.431992 181.505280,142.342789 
	C179.566437,127.587860 190.003784,117.062363 205.729462,118.704483 
	C203.130066,119.594925 200.071671,119.830536 197.360672,120.925941 
	C185.080246,125.887985 181.371216,134.272659 185.002548,148.590500 
	C185.001297,149.001587 184.971375,149.037491 184.971375,149.037491 
z"/>
<path fill="#CC7A48" opacity="1.000000" stroke="none" 
	d="
M302.017029,125.433945 
	C301.742645,126.651909 301.384277,127.464760 300.627411,129.181442 
	C300.020782,125.202766 299.916565,122.128448 299.052917,119.284782 
	C295.961548,109.106277 281.779755,104.858368 274.156097,107.801414 
	C272.785797,108.330391 271.311432,108.589798 269.495026,108.951660 
	C275.389893,103.864548 282.241943,103.363892 289.527954,106.401489 
	C297.802765,109.851303 301.699799,116.221268 302.017029,125.433945 
z"/>
<path fill="#CC7A48" opacity="1.000000" stroke="none" 
	d="
M326.439758,153.719177 
	C325.421478,155.235794 324.185242,156.386307 322.100708,158.326279 
	C326.290527,140.992157 319.649292,130.786819 303.243958,126.288483 
	C317.459351,126.306366 326.360352,135.734604 325.768799,150.074600 
	C325.724060,151.159348 326.061829,152.259888 326.439758,153.719177 
z"/>
<path fill="#CC7A48" opacity="1.000000" stroke="none" 
	d="
M194.362701,213.048431 
	C194.679993,214.079208 194.655991,215.169525 194.567688,216.574417 
	C191.612427,217.398117 188.633026,218.631866 185.845749,218.291672 
	C173.399658,216.772644 169.372757,210.478973 171.773117,196.403778 
	C172.063980,198.596863 171.881409,201.114655 172.140121,203.586227 
	C173.186523,213.582855 186.158218,219.699600 194.362701,213.048431 
z"/>
<path fill="#CC7A48" opacity="1.000000" stroke="none" 
	d="
M262.779541,110.563477 
	C259.402527,109.266060 256.171204,106.860199 252.611603,106.184853 
	C245.092957,104.758400 238.877960,107.432060 234.146484,114.127090 
	C234.395203,113.051064 234.643921,111.975044 234.937256,110.577499 
	C237.881622,108.182991 240.542786,105.579086 243.730392,104.146835 
	C250.500977,101.104683 257.682831,103.650787 262.779541,110.563477 
z"/>
<path fill="#CC7A48" opacity="1.000000" stroke="none" 
	d="
M178.549088,146.116425 
	C176.255798,149.448532 173.318726,152.568344 171.041122,156.111984 
	C167.358383,161.841888 170.481155,167.081161 172.964386,172.631195 
	C173.000000,173.000214 172.988113,173.015427 172.988113,173.015427 
	C171.538696,172.035446 170.089264,171.055481 168.308640,170.001526 
	C167.990234,168.805725 168.243378,167.623260 167.978165,166.571518 
	C165.643784,157.313492 169.329239,149.859665 178.549088,146.116425 
z"/>
<path fill="#CC7A48" opacity="1.000000" stroke="none" 
	d="
M231.909561,108.623581 
	C227.790390,109.633553 223.215973,109.854179 219.034988,111.251793 
	C213.118027,113.229721 210.113190,118.228333 207.992065,124.027069 
	C207.992065,122.730965 207.992065,121.434860 207.996460,119.776688 
	C213.440903,108.708382 219.417892,105.912025 231.909561,108.623581 
z"/>
<path fill="#CC7A48" opacity="1.000000" stroke="none" 
	d="
M165.603531,172.261383 
	C164.807724,177.794968 164.756851,183.359543 168.209961,188.311508 
	C169.588440,190.288391 171.547989,191.852631 173.046768,193.759003 
	C173.366852,194.166122 172.835907,195.242310 172.384796,196.018021 
	C169.737839,193.367096 167.022903,190.949173 165.152985,187.996155 
	C161.942947,182.926758 161.373230,177.553650 165.603531,172.261383 
z"/>
<path fill="#CC7A48" opacity="1.000000" stroke="none" 
	d="
M265.590729,111.731987 
	C265.886322,113.075981 265.886322,114.513382 265.886322,115.950790 
	C265.649872,116.061821 265.413391,116.172844 265.176941,116.283875 
	C264.458557,114.832710 263.740173,113.381546 263.058960,111.601303 
	C263.829132,111.456619 264.562134,111.641006 265.590729,111.731987 
z"/>
<path fill="#CC7A48" opacity="1.000000" stroke="none" 
	d="
M268.640961,109.093384 
	C268.547516,109.387581 268.208649,109.677155 267.634644,109.980888 
	C267.731537,109.692947 268.063507,109.390854 268.640961,109.093384 
z"/>
<path fill="#CC7A48" opacity="1.000000" stroke="none" 
	d="
M327.960907,155.660828 
	C327.651215,155.556442 327.335602,155.189529 326.984558,154.569641 
	C327.284393,154.677216 327.619690,155.037781 327.960907,155.660828 
z"/>
<path fill="#CC7A48" opacity="1.000000" stroke="none" 
	d="
M166.700439,171.072968 
	C166.884216,171.320267 166.753525,171.551895 166.334854,171.794327 
	C166.076096,171.528885 166.189133,171.279617 166.700439,171.072968 
z"/>
<path fill="#CC7A48" opacity="1.000000" stroke="none" 
	d="
M266.742371,110.408707 
	C266.849884,110.591110 266.752258,110.723808 266.490662,110.876068 
	C266.301758,110.696617 266.371918,110.517731 266.742371,110.408707 
z"/>
<path fill="#CC7A48" opacity="1.000000" stroke="none" 
	d="
M234.135681,109.699188 
	C233.941406,109.919487 233.635788,109.825302 233.208466,109.434143 
	C233.405762,109.176292 233.718292,109.258804 234.135681,109.699188 
z"/>
<path fill="#CC7A48" opacity="1.000000" stroke="none" 
	d="
M167.699738,170.036072 
	C167.883102,170.300522 167.722412,170.557358 167.239471,170.832672 
	C166.996140,170.550995 167.142273,170.276779 167.699738,170.036072 
z"/>
<path fill="#FCFAFA" opacity="1.000000" stroke="none" 
	d="
M298.000977,188.488251 
	C284.983032,193.152328 271.893829,197.385391 258.859955,201.782547 
	C257.143402,202.361649 255.816620,204.369827 254.121155,204.676712 
	C251.234192,205.199341 248.134766,205.274368 245.248886,204.792725 
	C243.628021,204.522217 242.408646,202.345001 240.748138,201.733368 
	C228.308823,197.151474 215.804596,192.745850 202.962555,188.120300 
	C203.643143,183.526794 206.179367,182.624695 210.651840,183.351715 
	C219.550400,184.798187 228.860611,183.998886 237.556381,188.540894 
	C237.989914,188.440598 237.957062,188.509354 237.957062,188.509354 
	C241.869965,191.905228 245.782852,195.301102 249.701019,198.701569 
	C254.072342,195.387772 258.345276,192.148544 263.190430,188.604980 
	C264.526947,187.890320 265.291229,187.480026 266.055511,187.069733 
	C271.748444,186.033920 277.441406,184.998108 283.949219,183.977356 
	C285.517700,183.959045 286.271271,183.925674 287.024872,183.892303 
	C288.635834,183.956116 290.334717,184.380142 291.840332,184.012527 
	C295.552551,183.106140 297.291168,184.688049 298.000977,188.488251 
z"/>
<path fill="#F6F3F1" opacity="1.000000" stroke="none" 
	d="
M263.883728,151.021896 
	C273.518616,151.617142 278.728851,158.492661 278.141968,169.837296 
	C277.622345,179.882126 271.721863,185.373566 261.634888,184.574402 
	C271.646606,184.603302 273.824310,171.507095 269.226440,165.190933 
	C266.174316,160.998154 260.716614,160.408157 257.994873,164.718475 
	C256.031342,167.828003 255.855652,172.066467 254.552002,175.620865 
	C253.851608,170.654709 253.481781,165.869095 253.111938,161.083496 
	C254.663269,158.871109 256.214600,156.658737 258.308411,154.076553 
	C259.097931,153.146530 259.345001,152.586319 259.592102,152.026123 
	C259.592102,152.026123 259.456940,152.092117 259.842773,152.368576 
	C261.446991,152.103989 262.665344,151.562943 263.883728,151.021896 
z"/>
<path fill="#F9F6F5" opacity="1.000000" stroke="none" 
	d="
M237.003235,150.870178 
	C238.100357,151.500214 239.197464,152.130249 240.693604,153.183044 
	C241.540009,153.893082 241.987366,154.180359 242.434723,154.467636 
	C242.434723,154.467636 242.526230,154.503464 242.526505,154.822144 
	C242.989822,155.460037 243.452881,155.779266 243.915924,156.098480 
	C243.915924,156.098480 243.992310,156.052765 244.040558,156.303497 
	C244.378128,156.751923 244.667480,156.949615 244.956833,157.147308 
	C244.956833,157.147308 245.014328,157.578018 245.106934,158.124603 
	C246.083237,159.941132 246.966919,161.211075 247.850601,162.481018 
	C247.850601,162.481018 247.615005,162.544464 247.361252,162.838898 
	C247.447815,163.749466 247.788132,164.365631 248.128448,164.981781 
	C248.103912,165.738495 248.079376,166.495224 248.051407,167.957565 
	C248.089325,169.108398 248.130692,169.553589 248.172058,169.998795 
	C248.011292,171.008957 247.850540,172.019104 247.338623,173.565979 
	C246.922363,174.709122 246.857285,175.315567 246.792206,175.921997 
	C246.402176,176.193359 246.012161,176.464737 245.300171,176.386475 
	C244.930145,174.218475 245.057693,172.374939 244.801208,170.586456 
	C244.024780,165.172684 240.546799,161.542328 236.420761,161.630478 
	C232.589630,161.712311 229.228210,165.345551 228.333344,170.394135 
	C227.383560,175.752686 229.835083,179.940872 233.000961,183.878448 
	C231.588196,183.595520 229.837280,183.748459 228.818314,182.957947 
	C222.836288,178.317093 221.165558,171.783691 222.284821,164.725113 
	C223.303268,158.302261 225.876755,152.555298 233.993408,150.927383 
	C235.490173,150.915024 236.246704,150.892609 237.003235,150.870178 
z"/>
<path fill="#292626" opacity="1.000000" stroke="none" 
	d="
M233.318649,183.968002 
	C229.835083,179.940872 227.383560,175.752686 228.333344,170.394135 
	C229.228210,165.345551 232.589630,161.712311 236.420761,161.630478 
	C240.546799,161.542328 244.024780,165.172684 244.801208,170.586456 
	C245.057693,172.374939 244.930145,174.218475 245.069550,176.459656 
	C245.135239,177.071533 245.109573,177.260605 245.050079,178.002380 
	C244.650909,179.026413 244.285568,179.497742 243.920212,179.969070 
	C243.347015,180.116318 242.773804,180.263580 241.903458,180.899979 
	C241.067017,181.915558 240.527740,182.442001 239.988464,182.968445 
	C237.871094,183.331482 235.753708,183.694519 233.318649,183.968002 
z"/>
<path fill="#292626" opacity="1.000000" stroke="none" 
	d="
M254.882568,175.801422 
	C255.855652,172.066467 256.031342,167.828003 257.994873,164.718475 
	C260.716614,160.408157 266.174316,160.998154 269.226440,165.190933 
	C273.824310,171.507095 271.646606,184.603302 261.201782,184.539337 
	C260.227325,184.320663 259.407318,183.770737 258.260468,182.746582 
	C256.916626,180.115372 255.899597,177.958389 254.882568,175.801422 
z"/>
<path fill="#292626" opacity="1.000000" stroke="none" 
	d="
M218.997086,149.002274 
	C219.985718,143.768127 222.822479,141.749252 229.435684,141.930069 
	C231.814056,141.995117 234.178055,142.586105 236.560913,143.415710 
	C230.281631,142.413177 224.981293,144.282883 219.892593,148.620087 
	C219.473450,148.950012 218.997086,149.002274 218.997086,149.002274 
z"/>
<path fill="#774D34" opacity="1.000000" stroke="none" 
	d="
M254.552002,175.620865 
	C255.899597,177.958389 256.916626,180.115372 257.971344,182.631226 
	C255.653915,178.916504 253.298798,174.842911 250.927399,170.053436 
	C250.878403,168.888458 250.845657,168.439346 250.812927,167.990234 
	C251.361450,165.795578 251.909973,163.600906 252.785217,161.244873 
	C253.481781,165.869095 253.851608,170.654709 254.552002,175.620865 
z"/>
<path fill="#292626" opacity="1.000000" stroke="none" 
	d="
M269.326721,142.016815 
	C268.291870,141.979355 267.636780,141.942642 266.751556,141.893036 
	C274.242462,138.860168 279.580017,140.449600 281.804291,146.210968 
	C277.771423,144.814026 273.738953,143.415802 269.326721,142.016815 
z"/>
<path fill="#F8EAE1" opacity="1.000000" stroke="none" 
	d="
M181.790955,175.872635 
	C182.083496,173.073166 182.376038,170.273697 182.668579,167.474228 
	C182.889587,167.526001 183.110580,167.577774 183.331573,167.629562 
	C184.298691,171.504074 185.265823,175.378601 186.353455,179.735947 
	C185.305069,179.132889 184.334595,178.574646 182.847275,177.910065 
	C182.000275,177.750412 181.670135,177.697083 181.339981,177.643753 
	C181.339981,177.643753 181.445999,177.762970 181.619492,177.513397 
	C181.792297,176.800095 181.791626,176.336365 181.790955,175.872635 
z"/>
<path fill="#F8EAE1" opacity="1.000000" stroke="none" 
	d="
M305.542938,190.767044 
	C304.963531,189.822144 304.695190,189.075607 304.195679,187.882584 
	C303.964539,187.436096 303.800751,186.993423 303.800751,186.993423 
	C303.924316,185.053619 304.047852,183.113800 304.171417,181.173996 
	C304.232178,187.423737 307.541443,190.599701 313.781769,191.232803 
	C313.553528,191.811920 313.325256,192.391037 313.096985,192.970169 
	C310.682648,192.301910 308.268341,191.633667 305.542938,190.767044 
z"/>
<path fill="#F6F3F1" opacity="1.000000" stroke="none" 
	d="
M192.190292,130.165710 
	C190.629654,134.711777 189.069031,139.257858 187.472534,143.908386 
	C185.967010,138.592545 186.635376,133.777237 191.281769,129.724670 
	C191.903168,129.896164 192.046722,130.030930 192.190292,130.165710 
z"/>
<path fill="#F8EAE1" opacity="1.000000" stroke="none" 
	d="
M174.763275,160.886871 
	C174.435669,163.212967 174.150208,165.140198 173.828491,167.312180 
	C170.911896,162.119583 171.649109,158.342102 176.873764,152.746445 
	C176.069916,155.755142 175.437668,158.121567 174.763275,160.886871 
z"/>
<path fill="#F8EAE1" opacity="1.000000" stroke="none" 
	d="
M173.532166,190.474060 
	C171.445587,187.440125 169.637390,184.636185 167.829193,181.832260 
	C168.220993,181.555954 168.612793,181.279648 169.004593,181.003326 
	C171.680359,184.457184 174.356110,187.911041 177.797119,192.352676 
	C175.745453,191.504242 174.778000,191.104156 173.532166,190.474060 
z"/>
<path fill="#F8EAE1" opacity="1.000000" stroke="none" 
	d="
M178.251419,208.761490 
	C181.740433,209.953903 185.229462,211.146317 189.079422,212.462097 
	C184.496689,214.271454 180.817749,213.561325 177.750977,209.657440 
	C177.958405,209.039062 178.104919,208.900269 178.251419,208.761490 
z"/>
<path fill="#774D34" opacity="1.000000" stroke="none" 
	d="
M263.645782,149.545074 
	C268.945221,146.445175 274.233826,146.199158 279.374512,149.031937 
	C274.631592,149.384674 269.811157,149.743164 264.446136,149.984406 
	C263.901550,149.867142 263.645782,149.545074 263.645782,149.545074 
z"/>
<path fill="#917664" opacity="1.000000" stroke="none" 
	d="
M185.067780,187.059097 
	C184.746445,191.029404 184.425110,194.999725 184.039185,199.497162 
	C183.974579,200.024277 183.777481,200.192291 183.777481,200.192291 
	C180.423401,195.750534 181.862885,191.502182 184.651016,187.147797 
	C185.004150,187.001602 185.067780,187.059097 185.067780,187.059097 
z"/>
<path fill="#917664" opacity="1.000000" stroke="none" 
	d="
M314.819397,162.792480 
	C315.570526,158.183350 316.321686,153.574219 317.135254,148.582092 
	C318.676941,153.586884 318.741241,158.224243 315.331299,162.825027 
	C314.953186,162.949387 314.819397,162.792480 314.819397,162.792480 
z"/>
<path fill="#917664" opacity="1.000000" stroke="none" 
	d="
M301.113037,187.803314 
	C300.677582,187.885941 300.242096,187.968582 299.475342,188.077301 
	C299.729034,184.355362 300.313995,180.607300 300.947388,176.430237 
	C300.995789,176.001251 301.065918,175.924255 301.065918,175.924255 
	C301.073486,179.330612 301.081024,182.736954 301.102631,186.766724 
	C301.116669,187.390137 301.113037,187.803314 301.113037,187.803314 
z"/>
<path fill="#917664" opacity="1.000000" stroke="none" 
	d="
M181.406540,175.542877 
	C181.791626,176.336365 181.792297,176.800095 181.657990,177.443542 
	C177.678238,176.194687 176.819641,171.941483 179.489944,167.834747 
	C179.993057,170.257538 180.507584,172.735321 181.406540,175.542877 
z"/>
<path fill="#CC7A48" opacity="1.000000" stroke="none" 
	d="
M239.997498,183.318008 
	C240.527740,182.442001 241.067017,181.915558 241.805603,181.187317 
	C242.888474,181.179993 243.772064,181.374481 244.778931,181.596115 
	C241.871964,186.234940 241.871964,186.234940 239.997498,183.318008 
z"/>
<path fill="#CC7A48" opacity="1.000000" stroke="none" 
	d="
M288.161621,155.368362 
	C289.308197,156.570160 290.141724,157.774231 290.975281,158.978302 
	C290.476929,159.247879 289.978577,159.517456 289.480194,159.787018 
	C288.936340,158.314896 288.392456,156.842758 288.161621,155.368362 
z"/>
<path fill="#CC7A48" opacity="1.000000" stroke="none" 
	d="
M287.170227,183.618851 
	C286.271271,183.925674 285.517700,183.959045 284.392090,183.923096 
	C284.932648,182.210785 285.845154,180.567795 286.757690,178.924789 
	C287.414978,179.522705 288.072235,180.120621 288.729523,180.718536 
	C288.258179,181.594162 287.786865,182.469788 287.170227,183.618851 
z"/>
<path fill="#CC7A48" opacity="1.000000" stroke="none" 
	d="
M294.844299,167.014084 
	C293.691223,166.683670 292.538177,166.353256 291.385101,166.022842 
	C291.569244,165.419586 291.786469,164.291153 291.932068,164.300339 
	C292.733459,164.350784 293.517334,164.679321 294.625000,165.288544 
	C294.909973,166.114471 294.877136,166.564270 294.844299,167.014084 
z"/>
<path fill="#CC7A48" opacity="1.000000" stroke="none" 
	d="
M209.378906,178.324570 
	C208.875977,177.076721 208.602692,176.032043 208.329391,174.987366 
	C208.874847,174.916412 209.420303,174.845474 209.965744,174.774536 
	C209.846680,176.025604 209.727615,177.276672 209.378906,178.324570 
z"/>
<path fill="#CC7A48" opacity="1.000000" stroke="none" 
	d="
M211.993103,156.678436 
	C211.694290,157.663376 211.122589,158.702606 210.550888,159.741852 
	C210.216064,159.505249 209.881256,159.268631 209.546432,159.032028 
	C210.271027,158.265594 210.995605,157.499161 211.993103,156.678436 
z"/>
<path fill="#CC7A48" opacity="1.000000" stroke="none" 
	d="
M291.148102,171.810913 
	C291.653107,171.309387 292.188629,171.115234 292.724121,170.921082 
	C292.659485,171.672043 292.594818,172.422989 292.530151,173.173935 
	C292.079651,172.822052 291.629150,172.470169 291.148102,171.810913 
z"/>
<path fill="#917664" opacity="1.000000" stroke="none" 
	d="
M294.925537,167.314133 
	C294.877136,166.564270 294.909973,166.114471 294.916718,165.326813 
	C295.092133,164.109955 295.293671,163.230972 295.754700,162.175873 
	C296.014221,161.999756 296.074860,161.944733 296.074829,161.944733 
	C296.037292,163.883850 296.003845,165.823059 295.950226,167.761734 
	C295.947510,167.859314 295.724518,168.050598 295.681610,168.030746 
	C295.443420,167.920532 295.229248,167.758484 294.925537,167.314133 
z"/>
<path fill="#774D34" opacity="1.000000" stroke="none" 
	d="
M263.935638,150.803680 
	C262.665344,151.562943 261.446991,152.103989 259.874451,152.436783 
	C260.668915,151.401840 261.817505,150.575165 263.305939,149.646774 
	C263.645782,149.545074 263.901550,149.867142 264.037933,150.022369 
	C264.174316,150.177612 263.987549,150.585480 263.935638,150.803680 
z"/>
<path fill="#CC7A48" opacity="1.000000" stroke="none" 
	d="
M250.483795,167.993896 
	C250.845657,168.439346 250.878403,168.888458 250.867615,169.673401 
	C250.161713,170.006088 249.499329,170.002930 248.504501,169.999283 
	C248.130692,169.553589 248.089325,169.108398 248.109985,168.332169 
	C248.832886,167.999954 249.493774,167.998764 250.483795,167.993896 
z"/>
<path fill="#CC7A48" opacity="1.000000" stroke="none" 
	d="
M197.205658,179.210648 
	C197.801361,179.570847 198.100693,179.994171 198.400024,180.417511 
	C197.957428,180.531952 197.514816,180.646393 197.072220,180.760834 
	C197.017914,180.265152 196.963593,179.769455 197.205658,179.210648 
z"/>
<path fill="#CC7A48" opacity="1.000000" stroke="none" 
	d="
M218.746643,149.203033 
	C218.997086,149.002274 219.473450,148.950012 219.709351,148.908356 
	C219.550110,149.747665 219.154968,150.628662 218.759827,151.509659 
	C218.671951,150.807709 218.584076,150.105759 218.746643,149.203033 
z"/>
<path fill="#CC7A48" opacity="1.000000" stroke="none" 
	d="
M247.872208,162.103943 
	C246.966919,161.211075 246.083237,159.941132 245.166473,158.333557 
	C246.053543,159.239563 246.973679,160.483231 247.872208,162.103943 
z"/>
<path fill="#CC7A48" opacity="1.000000" stroke="none" 
	d="
M244.251083,179.976089 
	C244.285568,179.497742 244.650909,179.026413 245.128845,178.277527 
	C245.686127,178.359146 246.130829,178.718338 246.575516,179.077515 
	C245.910995,179.379379 245.246475,179.681244 244.251083,179.976089 
z"/>
<path fill="#917664" opacity="1.000000" stroke="none" 
	d="
M184.072449,199.939453 
	C184.780380,200.672516 185.390457,201.490372 185.997681,202.658081 
	C185.994843,203.007935 185.925034,203.084457 185.925034,203.084457 
	C185.245041,202.339554 184.565048,201.594666 183.831268,200.521027 
	C183.777481,200.192291 183.974579,200.024277 184.072449,199.939453 
z"/>
<path fill="#CC7A48" opacity="1.000000" stroke="none" 
	d="
M236.981537,150.623306 
	C236.246704,150.892609 235.490173,150.915024 234.360535,150.860413 
	C234.978226,150.647736 235.969025,150.512085 236.981537,150.623306 
z"/>
<path fill="#CC7A48" opacity="1.000000" stroke="none" 
	d="
M209.088135,161.416046 
	C209.444794,162.008759 209.526871,162.578751 209.608963,163.148758 
	C209.329041,163.109848 208.812576,163.093185 208.806488,163.028488 
	C208.755661,162.488449 208.798767,161.939545 209.088135,161.416046 
z"/>
<path fill="#CC7A48" opacity="1.000000" stroke="none" 
	d="
M247.125946,175.908707 
	C246.857285,175.315567 246.922363,174.709122 247.250763,173.939697 
	C247.495956,174.482941 247.477814,175.189178 247.125946,175.908707 
z"/>
<path fill="#CC7A48" opacity="1.000000" stroke="none" 
	d="
M215.611237,152.537033 
	C216.057495,152.652161 216.330933,152.933167 216.583191,153.232040 
	C216.589661,153.239716 216.364166,153.443222 216.246857,153.555405 
	C215.976456,153.272018 215.706055,152.988632 215.611237,152.537033 
z"/>
<path fill="#CC7A48" opacity="1.000000" stroke="none" 
	d="
M212.043243,180.404083 
	C212.281326,180.794968 212.279327,181.184158 212.248474,181.571075 
	C212.247559,181.582809 211.945862,181.570587 211.784393,181.569519 
	C211.789215,181.180374 211.794052,180.791214 212.043243,180.404083 
z"/>
<path fill="#F8EAE1" opacity="1.000000" stroke="none" 
	d="
M177.568054,209.357224 
	C176.866852,208.817581 176.409515,208.098572 175.952164,207.379562 
	C176.134094,207.213409 176.316025,207.047272 176.497955,206.881134 
	C176.989883,207.309113 177.481827,207.737091 178.112579,208.463287 
	C178.104919,208.900269 177.958405,209.039062 177.568054,209.357224 
z"/>
<path fill="#CC7A48" opacity="1.000000" stroke="none" 
	d="
M245.976089,188.031296 
	C245.474106,187.720490 244.972107,187.409683 244.470123,187.098877 
	C244.650620,186.889740 244.831100,186.680603 245.011566,186.471466 
	C245.321594,186.786392 245.631607,187.101349 245.970795,187.708984 
	C245.999954,188.001648 245.976089,188.031296 245.976089,188.031296 
z"/>
<path fill="#CC7A48" opacity="1.000000" stroke="none" 
	d="
M289.396179,177.955063 
	C289.790009,177.714813 290.181763,177.716583 290.571350,177.746674 
	C290.582275,177.747528 290.569794,178.051163 290.568237,178.213593 
	C290.176788,178.209412 289.785309,178.205231 289.396179,177.955063 
z"/>
<path fill="#CC7A48" opacity="1.000000" stroke="none" 
	d="
M265.859619,186.864960 
	C265.291229,187.480026 264.526947,187.890320 263.437927,188.401031 
	C263.963379,187.887695 264.813568,187.273926 265.859619,186.864960 
z"/>
<path fill="#917664" opacity="1.000000" stroke="none" 
	d="
M181.207611,177.997894 
	C181.670135,177.697083 182.000275,177.750412 182.447769,177.906921 
	C182.646347,178.740799 182.727585,179.471451 182.808823,180.202118 
	C182.609924,180.279282 182.411026,180.356461 182.212112,180.433624 
	C181.833160,179.739761 181.454208,179.045898 181.207611,177.997894 
z"/>
<path fill="#CC7A48" opacity="1.000000" stroke="none" 
	d="
M194.210419,181.599243 
	C193.790894,181.461502 193.534912,181.192703 193.300385,180.906326 
	C193.291336,180.895279 193.488358,180.715454 193.589355,180.614258 
	C193.852142,180.897888 194.114929,181.181519 194.210419,181.599243 
z"/>
<path fill="#CC7A48" opacity="1.000000" stroke="none" 
	d="
M313.361450,170.903183 
	C313.635529,171.171982 313.748047,171.569946 313.804596,171.975693 
	C313.814209,172.044556 313.583435,172.146927 313.463684,172.233826 
	C313.369476,171.834213 313.275238,171.434586 313.361450,170.903183 
z"/>
<path fill="#CC7A48" opacity="1.000000" stroke="none" 
	d="
M256.123413,187.721100 
	C256.222321,187.253510 256.361511,187.008545 256.500702,186.763565 
	C256.639374,187.008270 256.941986,187.319519 256.876312,187.481293 
	C256.789001,187.696426 256.414673,187.795044 256.123413,187.721100 
z"/>
<path fill="#F8EAE1" opacity="1.000000" stroke="none" 
	d="
M175.812210,205.664490 
	C175.263428,205.477554 174.871887,205.021667 174.480362,204.565765 
	C174.758041,204.464111 175.200012,204.203186 175.283752,204.289551 
	C175.578720,204.593842 175.750763,205.017319 175.812210,205.664490 
z"/>
<path fill="#CC7A48" opacity="1.000000" stroke="none" 
	d="
M316.332764,194.800934 
	C315.963379,194.959457 315.645111,194.912201 315.326813,194.864960 
	C315.679169,194.775024 316.031494,194.685089 316.332764,194.800934 
z"/>
<path fill="#CC7A48" opacity="1.000000" stroke="none" 
	d="
M301.469666,187.849289 
	C301.113037,187.803314 301.116669,187.390137 301.150238,187.185913 
	C301.837097,186.986084 302.490356,186.990479 303.472198,186.994156 
	C303.800751,186.993423 303.964539,187.436096 303.975037,187.671326 
	C303.265808,187.902802 302.546082,187.899033 301.469666,187.849289 
z"/>
<path fill="#CC7A48" opacity="1.000000" stroke="none" 
	d="
M311.863037,174.305725 
	C312.051636,174.611145 312.026672,174.947632 312.001709,175.284134 
	C311.767181,175.212524 311.532623,175.140915 311.298096,175.069290 
	C311.415192,174.825119 311.532288,174.580948 311.863037,174.305725 
z"/>
<path fill="#CC7A48" opacity="1.000000" stroke="none" 
	d="
M207.476410,172.496506 
	C207.404846,172.091965 207.485474,171.842636 207.566101,171.593292 
	C207.838104,171.871643 208.110092,172.150009 208.382095,172.428360 
	C208.130920,172.502808 207.879761,172.577255 207.476410,172.496506 
z"/>
<path fill="#CC7A48" opacity="1.000000" stroke="none" 
	d="
M187.309875,159.839523 
	C187.587219,159.506500 187.833740,159.389084 188.080261,159.271667 
	C188.151535,159.509476 188.222794,159.747299 188.294067,159.985107 
	C187.955719,160.008453 187.617371,160.031799 187.309875,159.839523 
z"/>
<path fill="#CC7A48" opacity="1.000000" stroke="none" 
	d="
M248.344742,164.773834 
	C247.788132,164.365631 247.447815,163.749466 247.316132,162.952240 
	C247.870178,163.369400 248.215607,163.967651 248.344742,164.773834 
z"/>
<path fill="#CC7A48" opacity="1.000000" stroke="none" 
	d="
M207.398865,166.212479 
	C207.537186,165.790863 207.807129,165.533630 208.094803,165.298035 
	C208.106018,165.288849 208.286850,165.486725 208.388641,165.588135 
	C208.103638,165.852295 207.818619,166.116455 207.398865,166.212479 
z"/>
<path fill="#F6F3F1" opacity="1.000000" stroke="none" 
	d="
M191.572998,129.532471 
	C191.843933,129.036331 192.301468,128.769135 192.759003,128.501938 
	C192.731354,128.948898 192.703705,129.395844 192.433167,130.004257 
	C192.046722,130.030930 191.903168,129.896164 191.572998,129.532471 
z"/>
<path fill="#774D34" opacity="1.000000" stroke="none" 
	d="
M259.294006,152.153381 
	C259.345001,152.586319 259.097931,153.146530 258.534393,153.818634 
	C258.477264,153.380569 258.736603,152.830612 259.294006,152.153381 
z"/>
<path fill="#CC7A48" opacity="1.000000" stroke="none" 
	d="
M242.502823,154.140594 
	C241.987366,154.180359 241.540009,153.893082 240.985992,153.325058 
	C241.443192,153.300720 242.007065,153.557144 242.502823,154.140594 
z"/>
<path fill="#CC7A48" opacity="1.000000" stroke="none" 
	d="
M243.910751,155.766830 
	C243.452881,155.779266 242.989822,155.460037 242.522827,154.871124 
	C242.981125,154.879349 243.443344,155.157272 243.910751,155.766830 
z"/>
<path fill="#CC7A48" opacity="1.000000" stroke="none" 
	d="
M296.018982,161.959595 
	C296.183533,161.380707 296.343292,160.841965 296.752838,160.150909 
	C297.002625,159.998581 297.042786,160.032120 297.042786,160.032120 
	C296.875427,160.564896 296.708069,161.097672 296.307770,161.787582 
	C296.074860,161.944733 296.014221,161.999756 296.018982,161.959595 
z"/>
<path fill="#CC7A48" opacity="1.000000" stroke="none" 
	d="
M291.255859,161.642212 
	C291.008453,161.627594 290.873383,161.494064 290.738342,161.360550 
	C290.948303,161.414795 291.158234,161.469055 291.255859,161.642212 
z"/>
<path fill="#917664" opacity="1.000000" stroke="none" 
	d="
M315.019745,163.028137 
	C314.622894,163.434448 314.159485,163.761993 313.357361,164.057556 
	C313.018677,164.025543 312.921387,163.933945 312.921387,163.933945 
	C313.367096,163.592773 313.812805,163.251602 314.538940,162.851456 
	C314.819397,162.792480 314.953186,162.949387 315.019745,163.028137 
z"/>
<path fill="#917664" opacity="1.000000" stroke="none" 
	d="
M296.921967,172.089630 
	C296.723358,171.636200 296.524750,171.182770 296.326172,170.729340 
	C296.573975,170.948059 296.821777,171.166763 297.038147,171.691650 
	C297.006744,171.997803 296.921967,172.089630 296.921967,172.089630 
z"/>
<path fill="#CC7A48" opacity="1.000000" stroke="none" 
	d="
M237.954163,188.449524 
	C237.988022,188.000656 238.057648,187.542877 238.127258,187.085083 
	C238.310989,187.131760 238.494720,187.178452 238.678452,187.225128 
	C238.553574,187.503723 238.428696,187.782318 238.130432,188.285126 
	C237.957062,188.509354 237.989914,188.440598 237.954163,188.449524 
z"/>
<path fill="#774D34" opacity="1.000000" stroke="none" 
	d="
M281.371521,150.360321 
	C281.624115,150.340942 281.715790,150.434616 281.807465,150.528275 
	C281.608490,150.509979 281.409546,150.491684 281.371521,150.360321 
z"/>
<path fill="#917664" opacity="1.000000" stroke="none" 
	d="
M185.934174,185.942413 
	C186.102798,185.659897 186.271439,185.377365 186.717255,185.040939 
	C186.994431,184.987030 187.098755,185.084244 187.098755,185.084244 
	C187.002243,185.419922 186.808426,185.684265 186.256409,185.937653 
	C185.995514,185.998047 185.934174,185.942413 185.934174,185.942413 
z"/>
<path fill="#917664" opacity="1.000000" stroke="none" 
	d="
M186.946014,184.934692 
	C187.068451,184.891068 187.239304,184.899765 187.254456,184.996368 
	C187.098755,185.084244 186.994431,184.987030 186.946014,184.934692 
z"/>
<path fill="#917664" opacity="1.000000" stroke="none" 
	d="
M297.940552,173.067825 
	C297.592041,173.010559 297.321747,172.833755 297.025818,172.313538 
	C296.921967,172.089630 297.006744,171.997803 297.054382,171.953613 
	C297.436890,171.999725 297.697021,172.191467 297.939850,172.745163 
	C297.997284,173.005692 297.940552,173.067825 297.940552,173.067825 
z"/>
<path fill="#CC7A48" opacity="1.000000" stroke="none" 
	d="
M173.007477,172.994263 
	C173.131180,173.133759 173.247406,173.279190 173.363617,173.424606 
	C173.277069,173.377823 173.190506,173.331024 173.046021,173.149841 
	C172.988113,173.015427 173.000000,173.000214 173.007477,172.994263 
z"/>
<path fill="#774D34" opacity="1.000000" stroke="none" 
	d="
M283.589905,151.408173 
	C283.611450,151.623825 283.498688,151.761597 283.403809,151.750244 
	C283.309479,151.738922 283.233063,151.577728 283.148804,151.482254 
	C283.253662,151.409805 283.358551,151.337357 283.589905,151.408173 
z"/>
<path fill="#CC7A48" opacity="1.000000" stroke="none" 
	d="
M300.450867,157.530731 
	C300.419250,157.477249 300.482513,157.584198 300.450867,157.530731 
z"/>
<path fill="#CC7A48" opacity="1.000000" stroke="none" 
	d="
M185.019135,148.986511 
	C185.148071,149.124680 185.259171,149.277924 185.370270,149.431183 
	C185.280762,149.387146 185.191254,149.343109 185.036560,149.168274 
	C184.971375,149.037491 185.001297,149.001587 185.019135,148.986511 
z"/>
<path fill="#917664" opacity="1.000000" stroke="none" 
	d="
M315.433838,146.416351 
	C315.527588,146.343994 315.564087,146.614212 315.564087,146.614212 
	C315.564087,146.614212 315.340088,146.488693 315.433838,146.416351 
z"/>
<path fill="#917664" opacity="1.000000" stroke="none" 
	d="
M298.897308,174.115860 
	C298.635376,173.922119 298.373413,173.728378 298.026001,173.301239 
	C297.940552,173.067825 297.997284,173.005692 298.029297,172.976135 
	C298.399536,173.020096 298.671539,173.196014 298.933441,173.745102 
	C298.989563,174.015900 298.897308,174.115860 298.897308,174.115860 
z"/>
<path fill="#917664" opacity="1.000000" stroke="none" 
	d="
M299.039062,173.969269 
	C299.411224,174.028183 299.671387,174.218918 299.932251,174.750977 
	C299.995422,175.007095 299.936310,175.072083 299.936310,175.072083 
	C299.585938,175.023209 299.310944,174.852783 299.004333,174.338318 
	C298.897308,174.115860 298.989563,174.015900 299.039062,173.969269 
z"/>
<path fill="#917664" opacity="1.000000" stroke="none" 
	d="
M300.027710,174.977325 
	C300.403534,175.010025 300.676147,175.183746 300.971863,175.696487 
	C301.065918,175.924255 300.995789,176.001251 300.955383,176.038574 
	C300.567932,176.012070 300.295929,175.833832 300.017609,175.306641 
	C299.936310,175.072083 299.995422,175.007095 300.027710,174.977325 
z"/>
<path fill="#CC7A48" opacity="1.000000" stroke="none" 
	d="
M244.859146,156.898682 
	C244.667480,156.949615 244.378128,156.751923 243.996094,156.301544 
	C244.189407,156.249268 244.475433,156.449661 244.859146,156.898682 
z"/>
<path fill="#917664" opacity="1.000000" stroke="none" 
	d="
M313.063782,164.074829 
	C312.945435,164.118149 312.781952,164.112183 312.769928,164.020081 
	C312.921387,163.933945 313.018677,164.025543 313.063782,164.074829 
z"/>
<path fill="#CC7A48" opacity="1.000000" stroke="none" 
	d="
M297.971619,158.978531 
	C298.079071,158.953979 298.186493,158.929428 298.146545,158.952698 
	C297.999176,159.000534 297.971619,158.978531 297.971619,158.978531 
z"/>
<path fill="#917664" opacity="1.000000" stroke="none" 
	d="
M186.023529,186.028534 
	C185.991760,186.405640 185.818787,186.681168 185.300201,186.972351 
	C185.067780,187.059097 185.004150,187.001602 184.973740,186.968597 
	C185.003738,186.588272 185.178253,186.313461 185.700516,186.026779 
	C185.934174,185.942413 185.995514,185.998047 186.023529,186.028534 
z"/>
<path fill="#CC7A48" opacity="1.000000" stroke="none" 
	d="
M296.985626,159.978668 
	C297.091644,159.653488 297.285004,159.402374 297.760162,159.091980 
	C297.971619,158.978531 297.999176,159.000534 298.010468,159.014511 
	C297.907013,159.337234 297.719604,159.592590 297.251129,159.913361 
	C297.042786,160.032120 297.002625,159.998581 296.985626,159.978668 
z"/>
<path fill="#CC7A48" opacity="1.000000" stroke="none" 
	d="
M320.932770,159.950485 
	C321.064026,159.941101 321.195282,159.931717 321.161865,159.964325 
	C320.997223,160.006302 320.932770,159.950485 320.932770,159.950485 
z"/>
<path fill="#CC7A48" opacity="1.000000" stroke="none" 
	d="
M321.025055,160.038574 
	C320.927216,160.079880 320.801514,160.088898 320.804321,160.024200 
	C320.932770,159.950485 320.997223,160.006302 321.025055,160.038574 
z"/>
<path fill="#917664" opacity="1.000000" stroke="none" 
	d="
M184.567108,161.436798 
	C184.627182,161.519638 184.394836,161.547379 184.394836,161.547379 
	C184.394836,161.547379 184.507019,161.353943 184.567108,161.436798 
z"/>
<path fill="#917664" opacity="1.000000" stroke="none" 
	d="
M187.055756,203.935974 
	C187.185944,204.139938 187.316132,204.343903 187.446304,204.547867 
	C187.315552,204.505310 187.184814,204.462753 187.024216,204.211700 
	C186.994370,204.003189 187.055756,203.935974 187.055756,203.935974 
z"/>
<path fill="#917664" opacity="1.000000" stroke="none" 
	d="
M186.960876,204.034027 
	C186.573837,204.017868 186.297760,203.846298 186.012085,203.317307 
	C185.925034,203.084457 185.994843,203.007935 186.034546,202.971054 
	C186.417923,203.002319 186.687042,203.182053 186.968674,203.704681 
	C187.055756,203.935974 186.994370,204.003189 186.960876,204.034027 
z"/>
<path fill="#917664" opacity="1.000000" stroke="none" 
	d="
M182.575546,162.597626 
	C182.503693,162.648636 182.474609,162.453629 182.474609,162.453629 
	C182.474609,162.453629 182.647400,162.546631 182.575546,162.597626 
z"/>
<path fill="#917664" opacity="1.000000" stroke="none" 
	d="
M181.082397,165.068771 
	C180.932053,165.261185 180.781723,165.453613 180.631378,165.646042 
	C180.608231,165.448990 180.585068,165.251938 180.778381,165.021606 
	C180.994873,164.988312 181.082397,165.068771 181.082397,165.068771 
z"/>
<path fill="#917664" opacity="1.000000" stroke="none" 
	d="
M180.954697,164.944504 
	C181.069336,164.899643 181.224152,164.898605 181.230682,164.983170 
	C181.082397,165.068771 180.994873,164.988312 180.954697,164.944504 
z"/>
<path fill="#CC7A48" opacity="1.000000" stroke="none" 
	d="
M246.014587,187.989532 
	C246.141617,188.127426 246.254028,188.277435 246.366455,188.427444 
	C246.278320,188.382812 246.190186,188.338181 246.039062,188.162430 
	C245.976089,188.031296 245.999954,188.001648 246.014587,187.989532 
z"/>
<path fill="#040404" opacity="1.000000" stroke="none" 
	d="
M151.515778,340.939270 
	C149.116379,340.982391 147.156281,340.982391 144.623322,340.982391 
	C146.474136,329.294037 148.274765,317.922607 150.064941,306.617218 
	C160.107819,305.257843 167.037643,308.950012 168.812469,316.448120 
	C171.088837,326.065094 165.498337,336.518646 156.286469,339.777832 
	C154.886078,340.273254 153.401001,340.529358 151.515778,340.939270 
z"/>
<path fill="#0D0D0D" opacity="1.000000" stroke="none" 
	d="
M133.647247,306.192413 
	C131.770782,318.335327 129.894333,330.478210 128.044571,342.448395 
	C121.416504,339.580963 114.530685,342.196167 107.708580,340.688202 
	C108.214920,337.379761 108.710678,334.140533 109.268188,330.497742 
	C115.320244,330.497742 121.261604,330.497742 127.531563,330.497742 
	C128.280136,325.922791 128.969620,321.708923 129.756516,316.899719 
	C123.809708,316.899719 118.101418,316.899719 111.680618,316.899719 
	C112.162056,313.072968 112.563560,309.881592 113.056335,305.964722 
	C119.397697,305.964722 125.653259,305.964722 132.536285,306.024414 
	C133.163727,306.084137 133.647247,306.192413 133.647247,306.192413 
z"/>
<path fill="#292626" opacity="1.000000" stroke="none" 
	d="
M132.981415,305.916382 
	C133.073318,303.483887 133.347519,301.219147 133.621735,298.954376 
	C133.936066,298.996490 134.250381,299.038635 134.564713,299.080750 
	C134.360764,301.222321 134.156799,303.363892 133.800049,305.848938 
	C133.647247,306.192413 133.163727,306.084137 132.981415,305.916382 
z"/>
<path fill="#D07843" opacity="1.000000" stroke="none" 
	d="
M331.792542,332.181183 
	C331.491180,331.319336 331.491180,330.408264 331.491180,329.497162 
	C331.890808,329.547821 332.290466,329.598480 332.690094,329.649139 
	C332.491364,330.476746 332.292603,331.304321 331.792542,332.181183 
z"/>
<path fill="#D07843" opacity="1.000000" stroke="none" 
	d="
M330.843567,343.815186 
	C330.368896,344.471405 329.923706,344.823456 329.478516,345.175476 
	C329.411133,344.431915 329.343781,343.688324 329.276398,342.944763 
	C329.808624,343.133514 330.340851,343.322266 330.843567,343.815186 
z"/>
<path fill="#D07843" opacity="1.000000" stroke="none" 
	d="
M328.540833,350.385559 
	C328.655396,349.942596 328.936859,349.673920 329.218292,349.405212 
	C329.329498,349.521729 329.440674,349.638275 329.551880,349.754791 
	C329.270477,350.023132 328.989105,350.291473 328.540833,350.385559 
z"/>
<path fill="#D07843" opacity="1.000000" stroke="none" 
	d="
M331.384918,337.459473 
	C330.942139,337.345062 330.670807,337.066162 330.420410,336.769531 
	C330.414001,336.761963 330.637726,336.560120 330.754150,336.448914 
	C331.022461,336.730164 331.290771,337.011414 331.384918,337.459473 
z"/>
<path fill="#D07843" opacity="1.000000" stroke="none" 
	d="
M285.599792,338.789215 
	C285.461945,339.209351 285.192810,339.465668 284.906128,339.700562 
	C284.895142,339.709564 284.714996,339.512207 284.613678,339.411041 
	C284.897614,339.147919 285.181549,338.884796 285.599792,338.789215 
z"/>
<path fill="#D07843" opacity="1.000000" stroke="none" 
	d="
M286.637329,334.091370 
	C286.364960,333.823792 286.253387,333.428040 286.197357,333.024536 
	C286.187866,332.956146 286.417389,332.854553 286.536499,332.768311 
	C286.629913,333.165741 286.723358,333.563171 286.637329,334.091370 
z"/>
<path fill="#D07843" opacity="1.000000" stroke="none" 
	d="
M288.495117,320.522522 
	C288.092316,320.593811 287.844055,320.513397 287.595764,320.433014 
	C287.872955,320.162170 288.150116,319.891357 288.427307,319.620514 
	C288.501434,319.870636 288.575531,320.120728 288.495117,320.522522 
z"/>
<path fill="#D07843" opacity="1.000000" stroke="none" 
	d="
M284.362732,345.907776 
	C284.635010,346.175232 284.746552,346.570831 284.802521,346.974182 
	C284.812012,347.042542 284.582550,347.144073 284.463501,347.230316 
	C284.370117,346.833069 284.276703,346.435791 284.362732,345.907776 
z"/>
<path fill="#D07843" opacity="1.000000" stroke="none" 
	d="
M283.249908,352.011139 
	C283.412140,351.904419 283.575775,351.956940 283.739380,352.009460 
	C283.576691,352.063110 283.413971,352.116760 283.249908,352.011139 
z"/>
<path fill="#D07843" opacity="1.000000" stroke="none" 
	d="
M289.359497,315.248718 
	C289.374176,315.006836 289.504700,314.874969 289.635223,314.743134 
	C289.581940,314.948334 289.528656,315.153534 289.359497,315.248718 
z"/>
<path fill="#D07843" opacity="1.000000" stroke="none" 
	d="
M304.257202,316.755981 
	C304.236938,316.854218 304.139008,316.675995 304.111511,316.693390 
	C304.083984,316.710785 304.277435,316.657745 304.257202,316.755981 
z"/>
<path fill="#0F0905" opacity="1.000000" stroke="none" 
	d="
M414.882172,336.111023 
	C417.483398,336.111084 419.602112,336.111084 421.641724,336.111084 
	C422.448120,340.444824 421.207306,342.199585 417.049469,341.969543 
	C412.669220,341.727203 408.550354,341.796936 404.362610,344.642487 
	C399.579041,347.892853 390.526947,344.840790 392.788116,336.110992 
	C399.871155,336.110992 407.135437,336.110992 414.882172,336.111023 
z"/>
<path fill="#000000" opacity="1.000000" stroke="none" 
	d="
M396.021332,324.347900 
	C403.079468,318.859161 409.492737,320.023193 410.978271,327.320740 
	C406.131744,327.320740 401.395416,327.373810 396.666931,327.206482 
	C396.336578,327.194794 396.064026,325.549927 396.021332,324.347900 
z"/>
</svg>